<svg width="24" height="24" viewBox="0 0 24 24" fill="none" xmlns="http://www.w3.org/2000/svg">
<g clip-path="url(#clip0_17_820)">
<path d="M6.08577 23.9151C4.65848 23.8502 3.88314 23.6127 3.36743 23.4115C2.6841 23.1455 2.19693 22.8288 1.68407 22.3166C1.17122 21.8045 0.853806 21.3173 0.589176 20.634C0.388029 20.1183 0.150504 19.3429 0.0855946 17.9157C0.0142658 16.3728 0 15.9099 0 12.0011C0 8.09225 0.0156923 7.63004 0.0848813 6.08577C0.14979 4.65848 0.388742 3.88457 0.588463 3.36743C0.854519 2.6841 1.17193 2.19693 1.68336 1.68336C2.1955 1.17122 2.68268 0.853092 3.36672 0.588463C3.88243 0.387315 4.65777 0.14979 6.08506 0.0848813C7.62861 0.0142658 8.09225 0 11.9996 0C15.9085 0 16.3707 0.0156923 17.9149 0.0848813C19.3422 0.14979 20.1161 0.388742 20.6333 0.588463C21.3166 0.853092 21.8038 1.17122 22.3166 1.68336C22.8295 2.1955 23.1455 2.68339 23.4115 3.36672C23.6127 3.88243 23.8502 4.65777 23.9151 6.08506C23.9857 7.62933 24 8.09154 24 12.0004C24 15.9077 23.9857 16.3714 23.9151 17.9157C23.8502 19.3429 23.6113 20.1183 23.4115 20.634C23.1455 21.3173 22.8288 21.8045 22.3166 22.3166C21.8045 22.8288 21.3166 23.1455 20.6333 23.4115C20.1176 23.6127 19.3422 23.8502 17.9149 23.9151C16.3721 23.9857 15.9085 24 11.9996 24C8.09225 24 7.62862 23.9864 6.08577 23.9151Z" fill="white"/>
<path d="M7.45664 12.0174C7.45664 9.50424 9.49046 7.46637 12 7.46637C14.5095 7.46637 16.5444 9.50424 16.5444 12.0174C16.5444 14.5306 14.5095 16.5684 12 16.5684C9.49046 16.5684 7.45664 14.5306 7.45664 12.0174ZM5 12.0174C5 15.8891 8.13389 19.0276 12 19.0276C15.8661 19.0276 19 15.8891 19 12.0174C19 8.1457 15.8661 5.00726 12 5.00726C8.13389 5.00726 5 8.14548 5 12.0174Z" fill="#2A3B45"/>
<path d="M18.2525 5.34057C18.0877 5.09347 17.9999 4.80301 18 4.50591C18.0003 4.10767 18.1585 3.72584 18.4398 3.4443C18.721 3.16276 19.1029 3.00452 19.5006 3.00433C19.7973 3.00445 20.0872 3.09267 20.3339 3.25783C20.5805 3.42299 20.7726 3.65767 20.886 3.93221C20.9995 4.20674 21.0291 4.50879 20.9711 4.80016C20.9131 5.09153 20.7701 5.35913 20.5602 5.56913C20.3504 5.77913 20.083 5.92209 19.792 5.97993C19.5011 6.03778 19.1995 6.00791 18.9254 5.8941C18.6514 5.7803 18.4172 5.58767 18.2525 5.34057Z" fill="#2A3B45"/>
</g>
<defs>
<clipPath id="clip0_17_820">
<rect width="24" height="24" fill="white"/>
</clipPath>
</defs>
</svg>
